<svg xmlns="http://www.w3.org/2000/svg" style="display: none;"><symbol id="shopping-cart" viewBox="0 0 512 512"><title>shopping-cart</title><path d="" fill="none"/><g><path d="m476.94 332.587h-124.402c-4.151 0-7.515 3.364-7.515 7.515 0 4.15 3.364 7.515 7.515 7.515h124.402c5.78 0 10.482 4.702 10.482 10.482s-4.703 10.482-10.482 10.482h-309.423c-25.5 0-46.246-20.746-46.246-46.246 0-21.449 14.561-39.939 35.408-44.964 1.943-.468 3.618-1.691 4.658-3.397 1.039-1.707 1.356-3.757.88-5.698l-31.832-129.826c-.988-4.031-5.057-6.497-9.088-5.509s-6.497 5.057-5.509 9.088l30.145 122.943c-23.704 8.873-39.691 31.494-39.691 57.362 0 33.787 27.488 61.275 61.275 61.275h10.586c-15.206 12.342-24.946 31.168-24.946 52.233 0 7.091 1.1 14.078 3.269 20.767 1.28 3.947 5.52 6.108 9.466 4.83 3.948-1.28 6.111-5.518 4.83-9.466-1.682-5.189-2.536-10.616-2.536-16.131 0-28.801 23.432-52.233 52.233-52.233s52.233 23.431 52.233 52.233c0 28.801-23.432 52.233-52.233 52.233-13.237 0-25.863-4.96-35.551-13.966-3.04-2.826-7.794-2.652-10.62.387-2.826 3.04-2.652 7.795.388 10.62 12.478 11.599 28.738 17.987 45.784 17.987 37.089 0 67.263-30.174 67.263-67.263 0-21.065-9.741-39.891-24.946-52.233h103.484c-15.206 12.342-24.946 31.168-24.946 52.233 0 37.089 30.174 67.263 67.262 67.263s67.262-30.174 67.262-67.263c0-21.065-9.741-39.891-24.946-52.233h26.089c14.068 0 25.512-11.444 25.512-25.511-.002-14.065-11.446-25.509-25.514-25.509zm-16.172 103.255c0 28.801-23.431 52.233-52.233 52.233-28.801 0-52.233-23.432-52.233-52.233s23.431-52.233 52.233-52.233c28.802.001 52.233 23.432 52.233 52.233z"/><path d="m510.387 72.934c-1.425-1.807-3.6-2.862-5.901-2.862h-353.807l-6.393-26.072c-5.068-20.67-23.471-35.106-44.753-35.106h-74.022c-14.067.001-25.511 11.445-25.511 25.512s11.444 25.511 25.511 25.511h70.144l13.45 54.857c.988 4.03 5.054 6.496 9.088 5.509 4.031-.988 6.497-5.057 5.509-9.088l-14.374-58.624c-1.11-4.524-5.138-7.684-9.796-7.684h-74.021c-5.78 0-10.482-4.702-10.482-10.482s4.702-10.482 10.482-10.482h74.022c14.34 0 26.741 9.727 30.156 23.656l55.61 226.802c1.348 5.499.117 11.208-3.377 15.662s-8.744 7.009-14.406 7.009c-13.94 0-25.282 11.341-25.282 25.281 0 13.941 11.342 25.282 25.282 25.282h154.963c4.151 0 7.515-3.365 7.515-7.515s-3.364-7.515-7.515-7.515h-154.962c-5.653 0-10.252-4.599-10.252-10.253 0-5.653 4.599-10.252 10.252-10.252 10.309 0 19.869-4.652 26.231-12.762 4.403-5.612 6.828-12.319 7.094-19.236l257.048-.73c3.467-.01 6.477-2.39 7.286-5.761l46.617-194.252c.537-2.236.018-4.597-1.406-6.405zm-42.905 126.64h-45.677l9.726-49.721h47.883zm-48.324-64.75h-47.139l4.318-49.722h52.547zm-58.409 129.777 4.342-49.997h38.461l-9.762 49.903zm-104.534.296-9.838-50.294h38.461l4.359 50.2zm-57.727.164-12.372-50.458h44.947l9.847 50.338zm94.507-130.237-4.318-49.722h72.573l-4.318 49.722zm62.633 15.029-4.318 49.721h-52.692l-4.318-49.721zm-72.095 49.721h-40.096l-9.726-49.721h45.504zm-5.623-64.75h-47.139l-9.726-49.722h52.547zm-49.787 64.75h-45.692l-12.191-49.721h48.157zm71.8 15.029h50.082l-4.346 50.04-41.38.118zm66.473-15.029 4.318-49.721h45.504l-9.726 49.721zm-160.665-114.472 9.726 49.722h-48.902l-12.191-49.722zm246.208 179.24-42.827.122 9.753-49.86h45.01zm31.083-129.518h-48.55l9.726-49.722h50.756z"/><path d="m220.419 472.29c20.097 0 36.448-16.35 36.448-36.448 0-20.097-16.35-36.447-36.448-36.447-20.097 0-36.448 16.35-36.448 36.447.001 20.098 16.351 36.448 36.448 36.448zm0-57.865c11.81 0 21.418 9.608 21.418 21.418s-9.608 21.418-21.418 21.418-21.418-9.608-21.418-21.418 9.608-21.418 21.418-21.418z"/><path d="m408.535 472.29c20.097 0 36.447-16.35 36.447-36.448 0-20.097-16.35-36.447-36.447-36.447s-36.447 16.35-36.447 36.447c0 20.098 16.35 36.448 36.447 36.448zm0-57.865c11.81 0 21.418 9.608 21.418 21.418s-9.608 21.418-21.418 21.418-21.418-9.608-21.418-21.418 9.608-21.418 21.418-21.418z"/></g></symbol><symbol id="shop" viewBox="0 0 512 512"><title>shop</title><g> <g> <path d="M488.468,448.903h-8.532V226.4C499.202,214.003,512,192.386,512,167.822c0-1.305-0.341-2.588-0.988-3.721L451.499,59.953 c-4.18-7.313-12.009-11.857-20.432-11.857H80.933c-8.423,0-16.252,4.543-20.432,11.857L0.988,164.101 C0.341,165.234,0,166.518,0,167.822c0,24.564,12.798,46.181,32.064,58.578v222.503h-8.532c-4.142,0-7.5,3.358-7.5,7.5 c0,4.142,3.358,7.5,7.5,7.5h464.936c4.143,0,7.5-3.358,7.5-7.5C495.968,452.261,492.61,448.903,488.468,448.903z M15.517,175.322 h24.044c4.142,0,7.5-3.358,7.5-7.5c0-4.142-3.358-7.5-7.5-7.5H20.424l53.101-92.927c1.516-2.652,4.354-4.299,7.408-4.299h350.134 c3.054,0,5.893,1.647,7.408,4.299l53.1,92.927h-19.141c-4.143,0-7.5,3.358-7.5,7.5c0,4.142,3.357,7.5,7.5,7.5h24.048 c-3.667,26.584-26.532,47.125-54.108,47.125c-27.575,0-50.429-20.543-54.097-47.125h52.096c4.143,0,7.5-3.358,7.5-7.5 c0-4.142-3.357-7.5-7.5-7.5H71.631c-4.142,0-7.5,3.358-7.5,7.5c0,4.142,3.358,7.5,7.5,7.5h52.091 c-3.668,26.582-26.523,47.125-54.097,47.125C42.049,222.447,19.184,201.906,15.517,175.322z M372.222,175.322 c-3.668,26.582-26.523,47.125-54.097,47.125c-27.575,0-50.429-20.543-54.097-47.125H372.222z M247.972,175.322 c-3.668,26.582-26.523,47.125-54.097,47.125c-27.574,0-50.429-20.543-54.097-47.125H247.972z M424.854,448.904h-81.193v-25.081 h81.193V448.904z M424.854,408.823h-81.193V271.516h81.193V408.823z M464.936,448.904h-25.081V264.016c0-4.142-3.357-7.5-7.5-7.5 h-96.193c-4.143,0-7.5,3.358-7.5,7.5v184.887H47.064V233.674c7.081,2.433,14.665,3.773,22.561,3.773 c27.095,0,50.624-15.556,62.125-38.207c11.501,22.65,35.03,38.207,62.125,38.207c27.095,0,50.624-15.556,62.125-38.207 c11.501,22.65,35.03,38.207,62.125,38.207c27.095,0,50.624-15.556,62.125-38.207c11.501,22.65,35.03,38.207,62.125,38.207 c7.896,0,15.48-1.34,22.561-3.772V448.904z"/> </g> </g><g> <g> <path d="M296.081,256.516H79.645c-4.142,0-7.5,3.358-7.5,7.5v152.307c0,4.142,3.358,7.5,7.5,7.5h216.436 c4.143,0,7.5-3.358,7.5-7.5V264.016C303.581,259.873,300.224,256.516,296.081,256.516z M288.581,408.823H87.145V271.516h201.436 V408.823z"/> </g> </g></symbol><symbol id="delete" viewBox="-40 0 427 427.00131"><title>delete</title><path d="m232.398438 154.703125c-5.523438 0-10 4.476563-10 10v189c0 5.519531 4.476562 10 10 10 5.523437 0 10-4.480469 10-10v-189c0-5.523437-4.476563-10-10-10zm0 0"/><path d="m114.398438 154.703125c-5.523438 0-10 4.476563-10 10v189c0 5.519531 4.476562 10 10 10 5.523437 0 10-4.480469 10-10v-189c0-5.523437-4.476563-10-10-10zm0 0"/><path d="m28.398438 127.121094v246.378906c0 14.5625 5.339843 28.238281 14.667968 38.050781 9.285156 9.839844 22.207032 15.425781 35.730469 15.449219h189.203125c13.527344-.023438 26.449219-5.609375 35.730469-15.449219 9.328125-9.8125 14.667969-23.488281 14.667969-38.050781v-246.378906c18.542968-4.921875 30.558593-22.835938 28.078124-41.863282-2.484374-19.023437-18.691406-33.253906-37.878906-33.257812h-51.199218v-12.5c.058593-10.511719-4.097657-20.605469-11.539063-28.03125-7.441406-7.421875-17.550781-11.5546875-28.0625-11.46875h-88.796875c-10.511719-.0859375-20.621094 4.046875-28.0625 11.46875-7.441406 7.425781-11.597656 17.519531-11.539062 28.03125v12.5h-51.199219c-19.1875.003906-35.394531 14.234375-37.878907 33.257812-2.480468 19.027344 9.535157 36.941407 28.078126 41.863282zm239.601562 279.878906h-189.203125c-17.097656 0-30.398437-14.6875-30.398437-33.5v-245.5h250v245.5c0 18.8125-13.300782 33.5-30.398438 33.5zm-158.601562-367.5c-.066407-5.207031 1.980468-10.21875 5.675781-13.894531 3.691406-3.675781 8.714843-5.695313 13.925781-5.605469h88.796875c5.210937-.089844 10.234375 1.929688 13.925781 5.605469 3.695313 3.671875 5.742188 8.6875 5.675782 13.894531v12.5h-128zm-71.199219 32.5h270.398437c9.941406 0 18 8.058594 18 18s-8.058594 18-18 18h-270.398437c-9.941407 0-18-8.058594-18-18s8.058593-18 18-18zm0 0"/><path d="m173.398438 154.703125c-5.523438 0-10 4.476563-10 10v189c0 5.519531 4.476562 10 10 10 5.523437 0 10-4.480469 10-10v-189c0-5.523437-4.476563-10-10-10zm0 0"/></symbol><symbol id="rubbish" viewBox="0 0 512 512"><title>rubbish</title><g> <g> <path d="M425.298,51.358h-91.455V16.696c0-9.22-7.475-16.696-16.696-16.696H194.854c-9.22,0-16.696,7.475-16.696,16.696v34.662 H86.703c-9.22,0-16.696,7.475-16.696,16.696v51.357c0,9.22,7.475,16.696,16.696,16.696h338.593c9.22,0,16.696-7.475,16.696-16.696 V68.054C441.993,58.832,434.518,51.358,425.298,51.358z M300.45,51.358h-88.9V33.391h88.9V51.358z"/> </g> </g><g> <g> <path d="M93.192,169.497l13.844,326.516c0.378,8.937,7.735,15.988,16.68,15.988h264.568c8.945,0,16.302-7.051,16.68-15.989 l13.843-326.515H93.192z M205.53,444.105c0,9.22-7.475,16.696-16.696,16.696c-9.22,0-16.696-7.475-16.696-16.696V237.391 c0-9.22,7.475-16.696,16.696-16.696c9.22,0,16.696,7.475,16.696,16.696V444.105z M272.693,444.105 c0,9.22-7.475,16.696-16.696,16.696s-16.696-7.475-16.696-16.696V237.391c0-9.22,7.475-16.696,16.696-16.696 s16.696,7.475,16.696,16.696V444.105z M339.856,444.105c0,9.22-7.475,16.696-16.696,16.696s-16.696-7.475-16.696-16.696V237.391 c0-9.22,7.475-16.696,16.696-16.696s16.696,7.475,16.696,16.696V444.105z"/> </g> </g></symbol><symbol id="plus" viewBox="0 0 512 512"><title>plus</title><path d="m256 0c-141.164062 0-256 114.835938-256 256s114.835938 256 256 256 256-114.835938 256-256-114.835938-256-256-256zm112 277.332031h-90.667969v90.667969c0 11.777344-9.554687 21.332031-21.332031 21.332031s-21.332031-9.554687-21.332031-21.332031v-90.667969h-90.667969c-11.777344 0-21.332031-9.554687-21.332031-21.332031s9.554687-21.332031 21.332031-21.332031h90.667969v-90.667969c0-11.777344 9.554687-21.332031 21.332031-21.332031s21.332031 9.554687 21.332031 21.332031v90.667969h90.667969c11.777344 0 21.332031 9.554687 21.332031 21.332031s-9.554687 21.332031-21.332031 21.332031zm0 0"/></symbol><symbol id="more" viewBox="0 0 512 512"><title>more</title><path d="M256,0C114.615,0,0,114.615,0,256s114.615,256,256,256s256-114.615,256-256S397.385,0,256,0z M256,480 C132.288,480,32,379.712,32,256S132.288,32,256,32s224,100.288,224,224S379.712,480,256,480z"/><circle cx="256" cy="256" r="32"/><circle cx="368" cy="256" r="32"/><circle cx="144" cy="256" r="32"/></symbol><symbol id="minus" viewBox="0 0 512 512"><title>minus</title><path d="m256 0c-141.164062 0-256 114.835938-256 256s114.835938 256 256 256 256-114.835938 256-256-114.835938-256-256-256zm112 277.332031h-224c-11.777344 0-21.332031-9.554687-21.332031-21.332031s9.554687-21.332031 21.332031-21.332031h224c11.777344 0 21.332031 9.554687 21.332031 21.332031s-9.554687 21.332031-21.332031 21.332031zm0 0"/></symbol></svg>